<?xml version='1.0' encoding='UTF-8'?>
<!DOCTYPE svg PUBLIC "-//W3C//DTD SVG 1.0//EN" "http://www.w3.org/TR/2001/REC-SVG-20010904/DTD/svg10.dtd">
<svg viewBox="0 0 512 280" xmlns="http://www.w3.org/2000/svg" xmlns:inkspace="http://www.inkscape.org/namespaces/inkscape" xmlns:xlink="http://www.w3.org/1999/xlink">
  <defs id="defs_block">
    <filter height="1.504" id="filter_blur" inkspace:collect="always" width="1.1575" x="-0.07875" y="-0.252">
      <feGaussianBlur id="feGaussianBlur3780" inkspace:collect="always" stdDeviation="4.2" />
    </filter>
  </defs>
  <title>blockdiag</title>
  <desc />
  <path d="M 64 48 L 64 80" fill="none" stroke="rgb(0,0,0)" />
  <text fill="rgb(0,0,0)" font-family="sans-serif" font-size="11" font-style="normal" font-weight="normal" text-anchor="middle" textLength="7" x="64" y="42">0</text>
  <path d="M 88 64 L 88 80" fill="none" stroke="rgb(0,0,0)" />
  <path d="M 112 64 L 112 80" fill="none" stroke="rgb(0,0,0)" />
  <path d="M 136 64 L 136 80" fill="none" stroke="rgb(0,0,0)" />
  <path d="M 160 48 L 160 80" fill="none" stroke="rgb(0,0,0)" />
  <path d="M 184 64 L 184 80" fill="none" stroke="rgb(0,0,0)" />
  <path d="M 208 64 L 208 80" fill="none" stroke="rgb(0,0,0)" />
  <path d="M 232 64 L 232 80" fill="none" stroke="rgb(0,0,0)" />
  <path d="M 256 48 L 256 80" fill="none" stroke="rgb(0,0,0)" />
  <path d="M 280 64 L 280 80" fill="none" stroke="rgb(0,0,0)" />
  <path d="M 304 64 L 304 80" fill="none" stroke="rgb(0,0,0)" />
  <path d="M 328 64 L 328 80" fill="none" stroke="rgb(0,0,0)" />
  <path d="M 352 48 L 352 80" fill="none" stroke="rgb(0,0,0)" />
  <path d="M 376 64 L 376 80" fill="none" stroke="rgb(0,0,0)" />
  <path d="M 400 64 L 400 80" fill="none" stroke="rgb(0,0,0)" />
  <path d="M 424 64 L 424 80" fill="none" stroke="rgb(0,0,0)" />
  <path d="M 448 48 L 448 80" fill="none" stroke="rgb(0,0,0)" />
  <text fill="rgb(0,0,0)" font-family="sans-serif" font-size="11" font-style="normal" font-weight="normal" text-anchor="middle" textLength="13" x="448" y="42">16</text>
  <rect fill="rgb(255,255,255)" height="80" stroke="rgb(255,255,255)" width="192" x="64" y="80" />
  <path d="M 64 80 L 256 80" fill="none" stroke="rgb(0,0,0)" />
  <path d="M 256 80 L 256 160" fill="none" stroke="rgb(0,0,0)" />
  <path d="M 256 160 L 64 160" fill="none" stroke="rgb(0,0,0)" />
  <path d="M 64 160 L 64 80" fill="none" stroke="rgb(0,0,0)" />
  <text fill="rgb(0,0,0)" font-family="sans-serif" font-size="16" font-style="normal" font-weight="normal" text-anchor="middle" textLength="124" x="160" y="128">AD Structure 0</text>
  <rect fill="rgb(255,255,255)" height="80" stroke="rgb(255,255,255)" width="192" x="256" y="80" />
  <path d="M 256 80 L 448 80" fill="none" stroke="rgb(0,0,0)" stroke-dasharray="4" />
  <path d="M 448 80 L 448 160" fill="none" stroke="rgb(0,0,0)" stroke-dasharray="4" />
  <path d="M 448 160 L 256 160" fill="none" stroke="rgb(0,0,0)" stroke-dasharray="4" />
  <path d="M 256 160 L 256 80" fill="none" stroke="rgb(0,0,0)" stroke-dasharray="4" />
  <text fill="rgb(0,0,0)" font-family="sans-serif" font-size="16" font-style="normal" font-weight="normal" text-anchor="middle" textLength="124" x="352" y="128">AD Structure n</text>
  <rect fill="rgb(255,255,255)" height="80" stroke="rgb(255,255,255)" width="24" x="64" y="160" />
  <path d="M 64 160 L 88 160" fill="none" stroke="rgb(0,0,0)" />
  <path d="M 88 160 L 88 240" fill="none" stroke="rgb(0,0,0)" />
  <path d="M 88 240 L 64 240" fill="none" stroke="rgb(0,0,0)" />
  <path d="M 64 240 L 64 160" fill="none" stroke="rgb(0,0,0)" />
  <g transform="rotate(270,64,240)">
    <text fill="rgb(0,0,0)" font-family="sans-serif" font-size="16" font-style="normal" font-weight="normal" text-anchor="middle" textLength="27" x="104" y="260">Len</text>
  </g>
  <rect fill="rgb(255,255,255)" height="80" stroke="rgb(255,255,255)" width="24" x="88" y="160" />
  <path d="M 88 160 L 112 160" fill="none" stroke="rgb(0,0,0)" />
  <path d="M 112 160 L 112 240" fill="none" stroke="rgb(0,0,0)" />
  <path d="M 112 240 L 88 240" fill="none" stroke="rgb(0,0,0)" />
  <path d="M 88 240 L 88 160" fill="none" stroke="rgb(0,0,0)" />
  <g transform="rotate(270,88,240)">
    <text fill="rgb(0,0,0)" font-family="sans-serif" font-size="16" font-style="normal" font-weight="normal" text-anchor="middle" textLength="36" x="128" y="260">Type</text>
  </g>
  <rect fill="rgb(255,255,255)" height="80" stroke="rgb(255,255,255)" width="144" x="112" y="160" />
  <path d="M 112 160 L 256 160" fill="none" stroke="rgb(0,0,0)" stroke-dasharray="4" />
  <path d="M 256 160 L 256 240" fill="none" stroke="rgb(0,0,0)" stroke-dasharray="4" />
  <path d="M 256 240 L 112 240" fill="none" stroke="rgb(0,0,0)" stroke-dasharray="4" />
  <path d="M 112 240 L 112 160" fill="none" stroke="rgb(0,0,0)" stroke-dasharray="4" />
  <text fill="rgb(0,0,0)" font-family="sans-serif" font-size="16" font-style="normal" font-weight="normal" text-anchor="middle" textLength="36" x="184" y="199">Data</text>
  <text fill="rgb(0,0,0)" font-family="sans-serif" font-size="16" font-style="normal" font-weight="normal" text-anchor="middle" textLength="62" x="184" y="217">(len-1)</text>
  <rect fill="rgb(255,255,255)" height="80" stroke="rgb(255,255,255)" width="24" x="256" y="160" />
  <path d="M 256 160 L 280 160" fill="none" stroke="rgb(0,0,0)" stroke-dasharray="4" />
  <path d="M 280 160 L 280 240" fill="none" stroke="rgb(0,0,0)" stroke-dasharray="4" />
  <path d="M 280 240 L 256 240" fill="none" stroke="rgb(0,0,0)" stroke-dasharray="4" />
  <path d="M 256 240 L 256 160" fill="none" stroke="rgb(0,0,0)" stroke-dasharray="4" />
  <g transform="rotate(270,256,240)">
    <text fill="rgb(0,0,0)" font-family="sans-serif" font-size="16" font-style="normal" font-weight="normal" text-anchor="middle" textLength="27" x="296" y="260">Len</text>
  </g>
  <rect fill="rgb(255,255,255)" height="80" stroke="rgb(255,255,255)" width="24" x="280" y="160" />
  <path d="M 280 160 L 304 160" fill="none" stroke="rgb(0,0,0)" stroke-dasharray="4" />
  <path d="M 304 160 L 304 240" fill="none" stroke="rgb(0,0,0)" stroke-dasharray="4" />
  <path d="M 304 240 L 280 240" fill="none" stroke="rgb(0,0,0)" stroke-dasharray="4" />
  <path d="M 280 240 L 280 160" fill="none" stroke="rgb(0,0,0)" stroke-dasharray="4" />
  <g transform="rotate(270,280,240)">
    <text fill="rgb(0,0,0)" font-family="sans-serif" font-size="16" font-style="normal" font-weight="normal" text-anchor="middle" textLength="36" x="320" y="260">Type</text>
  </g>
  <rect fill="rgb(255,255,255)" height="80" stroke="rgb(255,255,255)" width="144" x="304" y="160" />
  <path d="M 304 160 L 448 160" fill="none" stroke="rgb(0,0,0)" stroke-dasharray="4" />
  <path d="M 448 160 L 448 240" fill="none" stroke="rgb(0,0,0)" stroke-dasharray="4" />
  <path d="M 448 240 L 304 240" fill="none" stroke="rgb(0,0,0)" stroke-dasharray="4" />
  <path d="M 304 240 L 304 160" fill="none" stroke="rgb(0,0,0)" stroke-dasharray="4" />
  <text fill="rgb(0,0,0)" font-family="sans-serif" font-size="16" font-style="normal" font-weight="normal" text-anchor="middle" textLength="36" x="376" y="199">Data</text>
  <text fill="rgb(0,0,0)" font-family="sans-serif" font-size="16" font-style="normal" font-weight="normal" text-anchor="middle" textLength="62" x="376" y="217">(len-1)</text>
</svg>
