<?xml version='1.0' encoding='UTF-8'?>
<!DOCTYPE svg PUBLIC "-//W3C//DTD SVG 1.0//EN" "http://www.w3.org/TR/2001/REC-SVG-20010904/DTD/svg10.dtd">
<svg viewBox="0 0 944 280" xmlns="http://www.w3.org/2000/svg" xmlns:inkspace="http://www.inkscape.org/namespaces/inkscape" xmlns:xlink="http://www.w3.org/1999/xlink">
  <defs id="defs_block">
    <filter height="1.504" id="filter_blur" inkspace:collect="always" width="1.1575" x="-0.07875" y="-0.252">
      <feGaussianBlur id="feGaussianBlur3780" inkspace:collect="always" stdDeviation="4.2" />
    </filter>
  </defs>
  <title>blockdiag</title>
  <desc />
  <path d="M 64 48 L 64 80" fill="none" stroke="rgb(0,0,0)" />
  <text fill="rgb(0,0,0)" font-family="sans-serif" font-size="11" font-style="normal" font-weight="normal" text-anchor="middle" textLength="7" x="64" y="42">0</text>
  <path d="M 88 64 L 88 80" fill="none" stroke="rgb(0,0,0)" />
  <path d="M 112 64 L 112 80" fill="none" stroke="rgb(0,0,0)" />
  <path d="M 136 64 L 136 80" fill="none" stroke="rgb(0,0,0)" />
  <path d="M 160 64 L 160 80" fill="none" stroke="rgb(0,0,0)" />
  <path d="M 184 64 L 184 80" fill="none" stroke="rgb(0,0,0)" />
  <path d="M 208 64 L 208 80" fill="none" stroke="rgb(0,0,0)" />
  <path d="M 232 64 L 232 80" fill="none" stroke="rgb(0,0,0)" />
  <path d="M 256 64 L 256 80" fill="none" stroke="rgb(0,0,0)" />
  <text fill="rgb(0,0,0)" font-family="sans-serif" font-size="11" font-style="normal" font-weight="normal" text-anchor="middle" textLength="7" x="256" y="58">8</text>
  <path d="M 280 64 L 280 80" fill="none" stroke="rgb(0,0,0)" />
  <path d="M 304 64 L 304 80" fill="none" stroke="rgb(0,0,0)" />
  <path d="M 328 64 L 328 80" fill="none" stroke="rgb(0,0,0)" />
  <path d="M 352 64 L 352 80" fill="none" stroke="rgb(0,0,0)" />
  <path d="M 376 64 L 376 80" fill="none" stroke="rgb(0,0,0)" />
  <path d="M 400 64 L 400 80" fill="none" stroke="rgb(0,0,0)" />
  <path d="M 424 64 L 424 80" fill="none" stroke="rgb(0,0,0)" />
  <path d="M 448 64 L 448 80" fill="none" stroke="rgb(0,0,0)" />
  <text fill="rgb(0,0,0)" font-family="sans-serif" font-size="11" font-style="normal" font-weight="normal" text-anchor="middle" textLength="13" x="448" y="58">16</text>
  <path d="M 472 48 L 472 80" fill="none" stroke="rgb(0,0,0)" />
  <path d="M 496 64 L 496 80" fill="none" stroke="rgb(0,0,0)" />
  <path d="M 520 64 L 520 80" fill="none" stroke="rgb(0,0,0)" />
  <path d="M 544 64 L 544 80" fill="none" stroke="rgb(0,0,0)" />
  <path d="M 568 64 L 568 80" fill="none" stroke="rgb(0,0,0)" />
  <path d="M 592 64 L 592 80" fill="none" stroke="rgb(0,0,0)" />
  <path d="M 616 64 L 616 80" fill="none" stroke="rgb(0,0,0)" />
  <path d="M 640 64 L 640 80" fill="none" stroke="rgb(0,0,0)" />
  <text fill="rgb(0,0,0)" font-family="sans-serif" font-size="11" font-style="normal" font-weight="normal" text-anchor="middle" textLength="13" x="640" y="58">24</text>
  <path d="M 664 64 L 664 80" fill="none" stroke="rgb(0,0,0)" />
  <path d="M 688 64 L 688 80" fill="none" stroke="rgb(0,0,0)" />
  <path d="M 712 64 L 712 80" fill="none" stroke="rgb(0,0,0)" />
  <path d="M 736 64 L 736 80" fill="none" stroke="rgb(0,0,0)" />
  <path d="M 760 64 L 760 80" fill="none" stroke="rgb(0,0,0)" />
  <path d="M 784 64 L 784 80" fill="none" stroke="rgb(0,0,0)" />
  <path d="M 808 64 L 808 80" fill="none" stroke="rgb(0,0,0)" />
  <path d="M 832 64 L 832 80" fill="none" stroke="rgb(0,0,0)" />
  <text fill="rgb(0,0,0)" font-family="sans-serif" font-size="11" font-style="normal" font-weight="normal" text-anchor="middle" textLength="13" x="832" y="58">32</text>
  <path d="M 856 64 L 856 80" fill="none" stroke="rgb(0,0,0)" />
  <path d="M 880 48 L 880 80" fill="none" stroke="rgb(0,0,0)" />
  <rect fill="rgb(255,255,255)" height="160" stroke="rgb(255,255,255)" width="144" x="64" y="80" />
  <path d="M 64 80 L 208 80" fill="none" stroke="rgb(0,0,0)" />
  <path d="M 208 80 L 208 240" fill="none" stroke="rgb(0,0,0)" />
  <path d="M 208 240 L 64 240" fill="none" stroke="rgb(0,0,0)" />
  <path d="M 64 240 L 64 80" fill="none" stroke="rgb(0,0,0)" />
  <text fill="rgb(0,0,0)" font-family="sans-serif" font-size="16" font-style="normal" font-weight="normal" text-anchor="middle" textLength="80" x="136" y="159">Initiator</text>
  <text fill="rgb(0,0,0)" font-family="sans-serif" font-size="16" font-style="normal" font-weight="normal" text-anchor="middle" textLength="62" x="136" y="177">Address</text>
  <rect fill="rgb(255,255,255)" height="160" stroke="rgb(255,255,255)" width="144" x="208" y="80" />
  <path d="M 208 80 L 352 80" fill="none" stroke="rgb(0,0,0)" />
  <path d="M 352 80 L 352 240" fill="none" stroke="rgb(0,0,0)" />
  <path d="M 352 240 L 208 240" fill="none" stroke="rgb(0,0,0)" />
  <path d="M 208 240 L 208 80" fill="none" stroke="rgb(0,0,0)" />
  <text fill="rgb(0,0,0)" font-family="sans-serif" font-size="16" font-style="normal" font-weight="normal" text-anchor="middle" textLength="88" x="280" y="159">Advertiser</text>
  <text fill="rgb(0,0,0)" font-family="sans-serif" font-size="16" font-style="normal" font-weight="normal" text-anchor="middle" textLength="62" x="280" y="177">Address</text>
  <rect fill="rgb(255,255,255)" height="80" stroke="rgb(255,255,255)" width="528" x="352" y="80" />
  <path d="M 352 80 L 880 80" fill="none" stroke="rgb(0,0,0)" />
  <path d="M 880 80 L 880 160" fill="none" stroke="rgb(0,0,0)" />
  <path d="M 880 160 L 352 160" fill="none" stroke="rgb(0,0,0)" />
  <path d="M 352 160 L 352 80" fill="none" stroke="rgb(0,0,0)" />
  <text fill="rgb(0,0,0)" font-family="sans-serif" font-size="16" font-style="normal" font-weight="normal" text-anchor="middle" textLength="53" x="616" y="128">LLData</text>
  <rect fill="rgb(255,255,255)" height="80" stroke="rgb(255,255,255)" width="96" x="352" y="160" />
  <path d="M 352 160 L 448 160" fill="none" stroke="rgb(0,0,0)" />
  <path d="M 448 160 L 448 240" fill="none" stroke="rgb(0,0,0)" />
  <path d="M 448 240 L 352 240" fill="none" stroke="rgb(0,0,0)" />
  <path d="M 352 240 L 352 160" fill="none" stroke="rgb(0,0,0)" />
  <text fill="rgb(0,0,0)" font-family="sans-serif" font-size="16" font-style="normal" font-weight="normal" text-anchor="middle" textLength="53" x="400" y="199">Access</text>
  <text fill="rgb(0,0,0)" font-family="sans-serif" font-size="16" font-style="normal" font-weight="normal" text-anchor="middle" textLength="62" x="400" y="217">Address</text>
  <rect fill="rgb(255,255,255)" height="80" stroke="rgb(255,255,255)" width="72" x="448" y="160" />
  <path d="M 448 160 L 520 160" fill="none" stroke="rgb(0,0,0)" />
  <path d="M 520 160 L 520 240" fill="none" stroke="rgb(0,0,0)" />
  <path d="M 520 240 L 448 240" fill="none" stroke="rgb(0,0,0)" />
  <path d="M 448 240 L 448 160" fill="none" stroke="rgb(0,0,0)" />
  <g transform="rotate(270,448,240)">
    <text fill="rgb(0,0,0)" font-family="sans-serif" font-size="16" font-style="normal" font-weight="normal" text-anchor="middle" textLength="62" x="488" y="284">CRCInit</text>
  </g>
  <rect fill="rgb(255,255,255)" height="80" stroke="rgb(255,255,255)" width="24" x="520" y="160" />
  <path d="M 520 160 L 544 160" fill="none" stroke="rgb(0,0,0)" />
  <path d="M 544 160 L 544 240" fill="none" stroke="rgb(0,0,0)" />
  <path d="M 544 240 L 520 240" fill="none" stroke="rgb(0,0,0)" />
  <path d="M 520 240 L 520 160" fill="none" stroke="rgb(0,0,0)" />
  <g transform="rotate(270,520,240)">
    <text fill="rgb(0,0,0)" font-family="sans-serif" font-size="16" font-style="normal" font-weight="normal" text-anchor="middle" textLength="62" x="560" y="260">WinSize</text>
  </g>
  <rect fill="rgb(255,255,255)" height="80" stroke="rgb(255,255,255)" width="48" x="544" y="160" />
  <path d="M 544 160 L 592 160" fill="none" stroke="rgb(0,0,0)" />
  <path d="M 592 160 L 592 240" fill="none" stroke="rgb(0,0,0)" />
  <path d="M 592 240 L 544 240" fill="none" stroke="rgb(0,0,0)" />
  <path d="M 544 240 L 544 160" fill="none" stroke="rgb(0,0,0)" />
  <g transform="rotate(270,544,240)">
    <text fill="rgb(0,0,0)" font-family="sans-serif" font-size="16" font-style="normal" font-weight="normal" text-anchor="middle" textLength="27" x="584" y="263">Win</text>
    <text fill="rgb(0,0,0)" font-family="sans-serif" font-size="16" font-style="normal" font-weight="normal" text-anchor="middle" textLength="53" x="584" y="281">Offset</text>
  </g>
  <rect fill="rgb(255,255,255)" height="80" stroke="rgb(255,255,255)" width="48" x="592" y="160" />
  <path d="M 592 160 L 640 160" fill="none" stroke="rgb(0,0,0)" />
  <path d="M 640 160 L 640 240" fill="none" stroke="rgb(0,0,0)" />
  <path d="M 640 240 L 592 240" fill="none" stroke="rgb(0,0,0)" />
  <path d="M 592 240 L 592 160" fill="none" stroke="rgb(0,0,0)" />
  <g transform="rotate(270,592,240)">
    <text fill="rgb(0,0,0)" font-family="sans-serif" font-size="16" font-style="normal" font-weight="normal" text-anchor="middle" textLength="71" x="632" y="272">Interval</text>
  </g>
  <rect fill="rgb(255,255,255)" height="80" stroke="rgb(255,255,255)" width="48" x="640" y="160" />
  <path d="M 640 160 L 688 160" fill="none" stroke="rgb(0,0,0)" />
  <path d="M 688 160 L 688 240" fill="none" stroke="rgb(0,0,0)" />
  <path d="M 688 240 L 640 240" fill="none" stroke="rgb(0,0,0)" />
  <path d="M 640 240 L 640 160" fill="none" stroke="rgb(0,0,0)" />
  <g transform="rotate(270,640,240)">
    <text fill="rgb(0,0,0)" font-family="sans-serif" font-size="16" font-style="normal" font-weight="normal" text-anchor="middle" textLength="62" x="680" y="272">Latency</text>
  </g>
  <rect fill="rgb(255,255,255)" height="80" stroke="rgb(255,255,255)" width="48" x="688" y="160" />
  <path d="M 688 160 L 736 160" fill="none" stroke="rgb(0,0,0)" />
  <path d="M 736 160 L 736 240" fill="none" stroke="rgb(0,0,0)" />
  <path d="M 736 240 L 688 240" fill="none" stroke="rgb(0,0,0)" />
  <path d="M 688 240 L 688 160" fill="none" stroke="rgb(0,0,0)" />
  <g transform="rotate(270,688,240)">
    <text fill="rgb(0,0,0)" font-family="sans-serif" font-size="16" font-style="normal" font-weight="normal" text-anchor="middle" textLength="62" x="728" y="272">Timeout</text>
  </g>
  <rect fill="rgb(255,255,255)" height="80" stroke="rgb(255,255,255)" width="120" x="736" y="160" />
  <path d="M 736 160 L 856 160" fill="none" stroke="rgb(0,0,0)" />
  <path d="M 856 160 L 856 240" fill="none" stroke="rgb(0,0,0)" />
  <path d="M 856 240 L 736 240" fill="none" stroke="rgb(0,0,0)" />
  <path d="M 736 240 L 736 160" fill="none" stroke="rgb(0,0,0)" />
  <g transform="rotate(270,736,240)">
    <text fill="rgb(0,0,0)" font-family="sans-serif" font-size="16" font-style="normal" font-weight="normal" text-anchor="middle" textLength="62" x="776" y="299">Channel</text>
    <text fill="rgb(0,0,0)" font-family="sans-serif" font-size="16" font-style="normal" font-weight="normal" text-anchor="middle" textLength="27" x="776" y="317">Map</text>
  </g>
  <rect fill="rgb(255,255,255)" height="80" stroke="rgb(255,255,255)" width="24" x="856" y="160" />
  <path d="M 856 160 L 880 160" fill="none" stroke="rgb(0,0,0)" />
  <path d="M 880 160 L 880 240" fill="none" stroke="rgb(0,0,0)" />
  <path d="M 880 240 L 856 240" fill="none" stroke="rgb(0,0,0)" />
  <path d="M 856 240 L 856 160" fill="none" stroke="rgb(0,0,0)" />
  <g transform="rotate(270,856,240)">
    <text fill="rgb(0,0,0)" font-family="sans-serif" font-size="16" font-style="normal" font-weight="normal" text-anchor="middle" textLength="62" x="896" y="260">Hop/SCA</text>
  </g>
</svg>
