<?xml version='1.0' encoding='UTF-8'?>
<!DOCTYPE svg PUBLIC "-//W3C//DTD SVG 1.0//EN" "http://www.w3.org/TR/2001/REC-SVG-20010904/DTD/svg10.dtd">
<svg viewBox="0 0 908 200" xmlns="http://www.w3.org/2000/svg" xmlns:inkspace="http://www.inkscape.org/namespaces/inkscape" xmlns:xlink="http://www.w3.org/1999/xlink">
  <defs id="defs_block">
    <filter height="1.504" id="filter_blur" inkspace:collect="always" width="1.1575" x="-0.07875" y="-0.252">
      <feGaussianBlur id="feGaussianBlur3780" inkspace:collect="always" stdDeviation="4.2" />
    </filter>
  </defs>
  <title>blockdiag</title>
  <desc />
  <path d="M 64 48 L 64 80" fill="none" stroke="rgb(0,0,0)" />
  <text fill="rgb(0,0,0)" font-family="sans-serif" font-size="11" font-style="normal" font-weight="normal" text-anchor="middle" textLength="7" x="64" y="42">0</text>
  <path d="M 84 64 L 84 80" fill="none" stroke="rgb(0,0,0)" />
  <path d="M 104 64 L 104 80" fill="none" stroke="rgb(0,0,0)" />
  <path d="M 124 64 L 124 80" fill="none" stroke="rgb(0,0,0)" />
  <path d="M 144 64 L 144 80" fill="none" stroke="rgb(0,0,0)" />
  <path d="M 164 64 L 164 80" fill="none" stroke="rgb(0,0,0)" />
  <path d="M 184 64 L 184 80" fill="none" stroke="rgb(0,0,0)" />
  <path d="M 204 64 L 204 80" fill="none" stroke="rgb(0,0,0)" />
  <path d="M 224 64 L 224 80" fill="none" stroke="rgb(0,0,0)" />
  <text fill="rgb(0,0,0)" font-family="sans-serif" font-size="11" font-style="normal" font-weight="normal" text-anchor="middle" textLength="7" x="224" y="58">8</text>
  <path d="M 244 64 L 244 80" fill="none" stroke="rgb(0,0,0)" />
  <path d="M 264 64 L 264 80" fill="none" stroke="rgb(0,0,0)" />
  <path d="M 284 64 L 284 80" fill="none" stroke="rgb(0,0,0)" />
  <path d="M 304 64 L 304 80" fill="none" stroke="rgb(0,0,0)" />
  <path d="M 324 64 L 324 80" fill="none" stroke="rgb(0,0,0)" />
  <path d="M 344 64 L 344 80" fill="none" stroke="rgb(0,0,0)" />
  <path d="M 364 64 L 364 80" fill="none" stroke="rgb(0,0,0)" />
  <path d="M 384 64 L 384 80" fill="none" stroke="rgb(0,0,0)" />
  <text fill="rgb(0,0,0)" font-family="sans-serif" font-size="11" font-style="normal" font-weight="normal" text-anchor="middle" textLength="13" x="384" y="58">16</text>
  <path d="M 404 64 L 404 80" fill="none" stroke="rgb(0,0,0)" />
  <path d="M 424 64 L 424 80" fill="none" stroke="rgb(0,0,0)" />
  <path d="M 444 64 L 444 80" fill="none" stroke="rgb(0,0,0)" />
  <path d="M 464 64 L 464 80" fill="none" stroke="rgb(0,0,0)" />
  <path d="M 484 64 L 484 80" fill="none" stroke="rgb(0,0,0)" />
  <path d="M 504 64 L 504 80" fill="none" stroke="rgb(0,0,0)" />
  <path d="M 524 64 L 524 80" fill="none" stroke="rgb(0,0,0)" />
  <path d="M 544 64 L 544 80" fill="none" stroke="rgb(0,0,0)" />
  <text fill="rgb(0,0,0)" font-family="sans-serif" font-size="11" font-style="normal" font-weight="normal" text-anchor="middle" textLength="13" x="544" y="58">24</text>
  <path d="M 564 64 L 564 80" fill="none" stroke="rgb(0,0,0)" />
  <path d="M 584 64 L 584 80" fill="none" stroke="rgb(0,0,0)" />
  <path d="M 604 64 L 604 80" fill="none" stroke="rgb(0,0,0)" />
  <path d="M 624 64 L 624 80" fill="none" stroke="rgb(0,0,0)" />
  <path d="M 644 64 L 644 80" fill="none" stroke="rgb(0,0,0)" />
  <path d="M 664 64 L 664 80" fill="none" stroke="rgb(0,0,0)" />
  <path d="M 684 64 L 684 80" fill="none" stroke="rgb(0,0,0)" />
  <path d="M 704 64 L 704 80" fill="none" stroke="rgb(0,0,0)" />
  <text fill="rgb(0,0,0)" font-family="sans-serif" font-size="11" font-style="normal" font-weight="normal" text-anchor="middle" textLength="13" x="704" y="58">32</text>
  <path d="M 724 64 L 724 80" fill="none" stroke="rgb(0,0,0)" />
  <path d="M 744 64 L 744 80" fill="none" stroke="rgb(0,0,0)" />
  <path d="M 764 64 L 764 80" fill="none" stroke="rgb(0,0,0)" />
  <path d="M 784 64 L 784 80" fill="none" stroke="rgb(0,0,0)" />
  <path d="M 804 64 L 804 80" fill="none" stroke="rgb(0,0,0)" />
  <path d="M 824 64 L 824 80" fill="none" stroke="rgb(0,0,0)" />
  <path d="M 844 48 L 844 80" fill="none" stroke="rgb(0,0,0)" />
  <rect fill="rgb(255,255,255)" height="80" stroke="rgb(255,255,255)" width="40" x="64" y="80" />
  <path d="M 64 80 L 104 80" fill="none" stroke="rgb(0,0,0)" />
  <path d="M 104 80 L 104 160" fill="none" stroke="rgb(0,0,0)" />
  <path d="M 104 160 L 64 160" fill="none" stroke="rgb(0,0,0)" />
  <path d="M 64 160 L 64 80" fill="none" stroke="rgb(0,0,0)" />
  <g transform="rotate(270,64,160)">
    <text fill="rgb(0,0,0)" font-family="sans-serif" font-size="16" font-style="normal" font-weight="normal" text-anchor="middle" textLength="53" x="104" y="188">Header</text>
  </g>
  <rect fill="rgb(255,255,255)" height="80" stroke="rgb(255,255,255)" width="660" x="104" y="80" />
  <path d="M 104 80 L 764 80" fill="none" stroke="rgb(0,0,0)" />
  <path d="M 764 80 L 764 160" fill="none" stroke="rgb(0,0,0)" />
  <path d="M 764 160 L 104 160" fill="none" stroke="rgb(0,0,0)" />
  <path d="M 104 160 L 104 80" fill="none" stroke="rgb(0,0,0)" />
  <text fill="rgb(0,0,0)" font-family="sans-serif" font-size="16" font-style="normal" font-weight="normal" text-anchor="middle" textLength="62" x="434" y="128">Payload</text>
  <rect fill="rgb(255,255,255)" height="80" stroke="rgb(255,255,255)" width="80" x="764" y="80" />
  <path d="M 764 80 L 844 80" fill="none" stroke="rgb(0,0,0)" stroke-dasharray="4" />
  <path d="M 844 80 L 844 160" fill="none" stroke="rgb(0,0,0)" stroke-dasharray="4" />
  <path d="M 844 160 L 764 160" fill="none" stroke="rgb(0,0,0)" stroke-dasharray="4" />
  <path d="M 764 160 L 764 80" fill="none" stroke="rgb(0,0,0)" stroke-dasharray="4" />
  <text fill="rgb(0,0,0)" font-family="sans-serif" font-size="16" font-style="normal" font-weight="normal" text-anchor="middle" textLength="27" x="804" y="128">MIC</text>
</svg>
