<?xml version='1.0' encoding='UTF-8'?>
<!DOCTYPE svg PUBLIC "-//W3C//DTD SVG 1.0//EN" "http://www.w3.org/TR/2001/REC-SVG-20010904/DTD/svg10.dtd">
<svg viewBox="0 0 768 200" xmlns="http://www.w3.org/2000/svg" xmlns:inkspace="http://www.inkscape.org/namespaces/inkscape" xmlns:xlink="http://www.w3.org/1999/xlink">
  <defs id="defs_block">
    <filter height="1.504" id="filter_blur" inkspace:collect="always" width="1.1575" x="-0.07875" y="-0.252">
      <feGaussianBlur id="feGaussianBlur3780" inkspace:collect="always" stdDeviation="4.2" />
    </filter>
  </defs>
  <title>blockdiag</title>
  <desc />
  <path d="M 64 48 L 64 80" fill="none" stroke="rgb(0,0,0)" />
  <text fill="rgb(0,0,0)" font-family="sans-serif" font-size="11" font-style="normal" font-weight="normal" text-anchor="middle" textLength="7" x="64" y="42">0</text>
  <path d="M 104 64 L 104 80" fill="none" stroke="rgb(0,0,0)" />
  <path d="M 144 64 L 144 80" fill="none" stroke="rgb(0,0,0)" />
  <path d="M 184 64 L 184 80" fill="none" stroke="rgb(0,0,0)" />
  <path d="M 224 48 L 224 80" fill="none" stroke="rgb(0,0,0)" />
  <path d="M 264 64 L 264 80" fill="none" stroke="rgb(0,0,0)" />
  <path d="M 304 64 L 304 80" fill="none" stroke="rgb(0,0,0)" />
  <path d="M 344 64 L 344 80" fill="none" stroke="rgb(0,0,0)" />
  <path d="M 384 48 L 384 80" fill="none" stroke="rgb(0,0,0)" />
  <text fill="rgb(0,0,0)" font-family="sans-serif" font-size="11" font-style="normal" font-weight="normal" text-anchor="middle" textLength="7" x="384" y="42">8</text>
  <path d="M 424 64 L 424 80" fill="none" stroke="rgb(0,0,0)" />
  <path d="M 464 64 L 464 80" fill="none" stroke="rgb(0,0,0)" />
  <path d="M 504 64 L 504 80" fill="none" stroke="rgb(0,0,0)" />
  <path d="M 544 48 L 544 80" fill="none" stroke="rgb(0,0,0)" />
  <path d="M 584 64 L 584 80" fill="none" stroke="rgb(0,0,0)" />
  <path d="M 624 64 L 624 80" fill="none" stroke="rgb(0,0,0)" />
  <path d="M 664 64 L 664 80" fill="none" stroke="rgb(0,0,0)" />
  <path d="M 704 48 L 704 80" fill="none" stroke="rgb(0,0,0)" />
  <text fill="rgb(0,0,0)" font-family="sans-serif" font-size="11" font-style="normal" font-weight="normal" text-anchor="middle" textLength="13" x="704" y="42">16</text>
  <rect fill="rgb(255,255,255)" height="80" stroke="rgb(255,255,255)" width="80" x="64" y="80" />
  <path d="M 64 80 L 144 80" fill="none" stroke="rgb(0,0,0)" />
  <path d="M 144 80 L 144 160" fill="none" stroke="rgb(0,0,0)" />
  <path d="M 144 160 L 64 160" fill="none" stroke="rgb(0,0,0)" />
  <path d="M 64 160 L 64 80" fill="none" stroke="rgb(0,0,0)" />
  <g transform="rotate(270,64,160)">
    <text fill="rgb(0,0,0)" font-family="sans-serif" font-size="16" font-style="normal" font-weight="normal" text-anchor="middle" textLength="36" x="104" y="208">LLID</text>
  </g>
  <rect fill="rgb(255,255,255)" height="80" stroke="rgb(255,255,255)" width="40" x="144" y="80" />
  <path d="M 144 80 L 184 80" fill="none" stroke="rgb(0,0,0)" />
  <path d="M 184 80 L 184 160" fill="none" stroke="rgb(0,0,0)" />
  <path d="M 184 160 L 144 160" fill="none" stroke="rgb(0,0,0)" />
  <path d="M 144 160 L 144 80" fill="none" stroke="rgb(0,0,0)" />
  <g transform="rotate(270,144,160)">
    <text fill="rgb(0,0,0)" font-family="sans-serif" font-size="16" font-style="normal" font-weight="normal" text-anchor="middle" textLength="44" x="184" y="188">NESN</text>
  </g>
  <rect fill="rgb(255,255,255)" height="80" stroke="rgb(255,255,255)" width="40" x="184" y="80" />
  <path d="M 184 80 L 224 80" fill="none" stroke="rgb(0,0,0)" />
  <path d="M 224 80 L 224 160" fill="none" stroke="rgb(0,0,0)" />
  <path d="M 224 160 L 184 160" fill="none" stroke="rgb(0,0,0)" />
  <path d="M 184 160 L 184 80" fill="none" stroke="rgb(0,0,0)" />
  <g transform="rotate(270,184,160)">
    <text fill="rgb(0,0,0)" font-family="sans-serif" font-size="16" font-style="normal" font-weight="normal" text-anchor="middle" textLength="22" x="224" y="188">SN</text>
  </g>
  <rect fill="rgb(255,255,255)" height="80" stroke="rgb(255,255,255)" width="40" x="224" y="80" />
  <path d="M 224 80 L 264 80" fill="none" stroke="rgb(0,0,0)" />
  <path d="M 264 80 L 264 160" fill="none" stroke="rgb(0,0,0)" />
  <path d="M 264 160 L 224 160" fill="none" stroke="rgb(0,0,0)" />
  <path d="M 224 160 L 224 80" fill="none" stroke="rgb(0,0,0)" />
  <g transform="rotate(270,224,160)">
    <text fill="rgb(0,0,0)" font-family="sans-serif" font-size="16" font-style="normal" font-weight="normal" text-anchor="middle" textLength="24" x="264" y="188">MD</text>
  </g>
  <rect fill="rgb(255,255,255)" height="80" stroke="rgb(255,255,255)" width="120" x="264" y="80" />
  <path d="M 264 80 L 384 80" fill="none" stroke="rgb(0,0,0)" />
  <path d="M 384 80 L 384 160" fill="none" stroke="rgb(0,0,0)" />
  <path d="M 384 160 L 264 160" fill="none" stroke="rgb(0,0,0)" />
  <path d="M 264 160 L 264 80" fill="none" stroke="rgb(0,0,0)" />
  <g transform="rotate(270,264,160)">
    <text fill="rgb(0,0,0)" font-family="sans-serif" font-size="16" font-style="normal" font-weight="normal" text-anchor="middle" textLength="71" x="304" y="228">Reserved</text>
  </g>
  <rect fill="rgb(255,255,255)" height="80" stroke="rgb(255,255,255)" width="200" x="384" y="80" />
  <path d="M 384 80 L 584 80" fill="none" stroke="rgb(0,0,0)" />
  <path d="M 584 80 L 584 160" fill="none" stroke="rgb(0,0,0)" />
  <path d="M 584 160 L 384 160" fill="none" stroke="rgb(0,0,0)" />
  <path d="M 384 160 L 384 80" fill="none" stroke="rgb(0,0,0)" />
  <g transform="rotate(270,384,160)">
    <text fill="rgb(0,0,0)" font-family="sans-serif" font-size="16" font-style="normal" font-weight="normal" text-anchor="middle" textLength="53" x="424" y="268">Length</text>
  </g>
  <rect fill="rgb(255,255,255)" height="80" stroke="rgb(255,255,255)" width="120" x="584" y="80" />
  <path d="M 584 80 L 704 80" fill="none" stroke="rgb(0,0,0)" />
  <path d="M 704 80 L 704 160" fill="none" stroke="rgb(0,0,0)" />
  <path d="M 704 160 L 584 160" fill="none" stroke="rgb(0,0,0)" />
  <path d="M 584 160 L 584 80" fill="none" stroke="rgb(0,0,0)" />
  <g transform="rotate(270,584,160)">
    <text fill="rgb(0,0,0)" font-family="sans-serif" font-size="16" font-style="normal" font-weight="normal" text-anchor="middle" textLength="71" x="624" y="228">Reserved</text>
  </g>
</svg>
