<?xml version='1.0' encoding='UTF-8'?>
<!DOCTYPE svg PUBLIC "-//W3C//DTD SVG 1.0//EN" "http://www.w3.org/TR/2001/REC-SVG-20010904/DTD/svg10.dtd">
<svg viewBox="0 0 768 536" xmlns="http://www.w3.org/2000/svg" xmlns:inkspace="http://www.inkscape.org/namespaces/inkscape" xmlns:xlink="http://www.w3.org/1999/xlink">
  <defs id="defs_block">
    <filter height="1.504" id="filter_blur" inkspace:collect="always" width="1.1575" x="-0.07875" y="-0.252">
      <feGaussianBlur id="feGaussianBlur3780" inkspace:collect="always" stdDeviation="4.2" />
    </filter>
  </defs>
  <title>blockdiag</title>
  <desc />
  <path d="M 64 48 L 64 80" fill="none" stroke="rgb(0,0,0)" />
  <text fill="rgb(0,0,0)" font-family="sans-serif" font-size="11" font-style="normal" font-weight="normal" text-anchor="middle" textLength="7" x="64" y="42">0</text>
  <path d="M 96 64 L 96 80" fill="none" stroke="rgb(0,0,0)" />
  <path d="M 128 64 L 128 80" fill="none" stroke="rgb(0,0,0)" />
  <path d="M 160 64 L 160 80" fill="none" stroke="rgb(0,0,0)" />
  <path d="M 192 64 L 192 80" fill="none" stroke="rgb(0,0,0)" />
  <path d="M 224 48 L 224 80" fill="none" stroke="rgb(0,0,0)" />
  <path d="M 256 64 L 256 80" fill="none" stroke="rgb(0,0,0)" />
  <path d="M 288 64 L 288 80" fill="none" stroke="rgb(0,0,0)" />
  <path d="M 320 64 L 320 80" fill="none" stroke="rgb(0,0,0)" />
  <text fill="rgb(0,0,0)" font-family="sans-serif" font-size="11" font-style="normal" font-weight="normal" text-anchor="middle" textLength="7" x="320" y="58">8</text>
  <path d="M 352 64 L 352 80" fill="none" stroke="rgb(0,0,0)" />
  <path d="M 384 48 L 384 80" fill="none" stroke="rgb(0,0,0)" />
  <path d="M 416 64 L 416 80" fill="none" stroke="rgb(0,0,0)" />
  <path d="M 448 64 L 448 80" fill="none" stroke="rgb(0,0,0)" />
  <path d="M 480 64 L 480 80" fill="none" stroke="rgb(0,0,0)" />
  <path d="M 512 64 L 512 80" fill="none" stroke="rgb(0,0,0)" />
  <path d="M 544 48 L 544 80" fill="none" stroke="rgb(0,0,0)" />
  <path d="M 576 64 L 576 80" fill="none" stroke="rgb(0,0,0)" />
  <text fill="rgb(0,0,0)" font-family="sans-serif" font-size="11" font-style="normal" font-weight="normal" text-anchor="middle" textLength="13" x="576" y="58">16</text>
  <path d="M 608 64 L 608 80" fill="none" stroke="rgb(0,0,0)" />
  <path d="M 640 64 L 640 80" fill="none" stroke="rgb(0,0,0)" />
  <path d="M 672 64 L 672 80" fill="none" stroke="rgb(0,0,0)" />
  <path d="M 704 48 L 704 80" fill="none" stroke="rgb(0,0,0)" />
  <rect fill="rgb(255,255,255)" height="32" stroke="rgb(255,255,255)" width="64" x="64" y="80" />
  <path d="M 64 80 L 128 80" fill="none" stroke="rgb(0,0,0)" />
  <path d="M 128 80 L 128 112" fill="none" stroke="rgb(0,0,0)" />
  <path d="M 128 112 L 64 112" fill="none" stroke="rgb(0,0,0)" />
  <path d="M 64 112 L 64 80" fill="none" stroke="rgb(0,0,0)" />
  <text fill="rgb(0,0,0)" font-family="sans-serif" font-size="16" font-style="normal" font-weight="normal" text-anchor="middle" textLength="53" x="96" y="104">Handle</text>
  <rect fill="rgb(255,255,255)" height="32" stroke="rgb(255,255,255)" width="64" x="128" y="80" />
  <path d="M 128 80 L 192 80" fill="none" stroke="rgb(0,0,0)" />
  <path d="M 192 80 L 192 112" fill="none" stroke="rgb(0,0,0)" />
  <path d="M 192 112 L 128 112" fill="none" stroke="rgb(0,0,0)" />
  <path d="M 128 112 L 128 80" fill="none" stroke="rgb(0,0,0)" />
  <text fill="rgb(0,0,0)" font-family="sans-serif" font-size="16" font-style="normal" font-weight="normal" text-anchor="middle" textLength="36" x="160" y="104">UUID</text>
  <rect fill="rgb(255,255,255)" height="32" stroke="rgb(255,255,255)" width="512" x="192" y="80" />
  <path d="M 192 80 L 704 80" fill="none" stroke="rgb(0,0,0)" />
  <path d="M 704 80 L 704 112" fill="none" stroke="rgb(0,0,0)" />
  <path d="M 704 112 L 192 112" fill="none" stroke="rgb(0,0,0)" />
  <path d="M 192 112 L 192 80" fill="none" stroke="rgb(0,0,0)" />
  <text fill="rgb(0,0,0)" font-family="sans-serif" font-size="16" font-style="normal" font-weight="normal" text-anchor="middle" textLength="44" x="448" y="104">Value</text>
  <rect fill="rgb(255,255,255)" height="64" stroke="rgb(255,255,255)" width="64" x="64" y="112" />
  <path d="M 64 112 L 128 112" fill="none" stroke="rgb(0,0,0)" />
  <path d="M 128 112 L 128 176" fill="none" stroke="rgb(0,0,0)" />
  <path d="M 128 176 L 64 176" fill="none" stroke="rgb(0,0,0)" />
  <path d="M 64 176 L 64 112" fill="none" stroke="rgb(0,0,0)" />
  <text fill="rgb(0,0,0)" font-family="sans-serif" font-size="16" font-style="normal" font-weight="normal" text-anchor="middle" textLength="53" x="96" y="152">0x0001</text>
  <rect fill="rgb(255,255,255)" height="64" stroke="rgb(255,255,255)" width="64" x="128" y="112" />
  <path d="M 128 112 L 192 112" fill="none" stroke="rgb(0,0,0)" />
  <path d="M 192 112 L 192 176" fill="none" stroke="rgb(0,0,0)" />
  <path d="M 192 176 L 128 176" fill="none" stroke="rgb(0,0,0)" />
  <path d="M 128 176 L 128 112" fill="none" stroke="rgb(0,0,0)" />
  <text fill="rgb(0,0,0)" font-family="sans-serif" font-size="16" font-style="normal" font-weight="normal" text-anchor="middle" textLength="53" x="160" y="152">0x2800</text>
  <rect fill="rgb(255,255,255)" height="64" stroke="rgb(255,255,255)" width="64" x="192" y="112" />
  <path d="M 192 112 L 256 112" fill="none" stroke="rgb(0,0,0)" />
  <path d="M 256 112 L 256 176" fill="none" stroke="rgb(0,0,0)" />
  <path d="M 256 176 L 192 176" fill="none" stroke="rgb(0,0,0)" />
  <path d="M 192 176 L 192 112" fill="none" stroke="rgb(0,0,0)" />
  <text fill="rgb(0,0,0)" font-family="sans-serif" font-size="16" font-style="normal" font-weight="normal" text-anchor="middle" textLength="53" x="224" y="152">0x180F</text>
  <rect fill="rgb(255,255,255)" height="64" stroke="rgb(255,255,255)" width="64" x="64" y="176" />
  <path d="M 64 176 L 128 176" fill="none" stroke="rgb(0,0,0)" />
  <path d="M 128 176 L 128 240" fill="none" stroke="rgb(0,0,0)" />
  <path d="M 128 240 L 64 240" fill="none" stroke="rgb(0,0,0)" />
  <path d="M 64 240 L 64 176" fill="none" stroke="rgb(0,0,0)" />
  <text fill="rgb(0,0,0)" font-family="sans-serif" font-size="16" font-style="normal" font-weight="normal" text-anchor="middle" textLength="53" x="96" y="216">0x0002</text>
  <rect fill="rgb(255,255,255)" height="64" stroke="rgb(255,255,255)" width="64" x="128" y="176" />
  <path d="M 128 176 L 192 176" fill="none" stroke="rgb(0,0,0)" />
  <path d="M 192 176 L 192 240" fill="none" stroke="rgb(0,0,0)" />
  <path d="M 192 240 L 128 240" fill="none" stroke="rgb(0,0,0)" />
  <path d="M 128 240 L 128 176" fill="none" stroke="rgb(0,0,0)" />
  <text fill="rgb(0,0,0)" font-family="sans-serif" font-size="16" font-style="normal" font-weight="normal" text-anchor="middle" textLength="53" x="160" y="216">0x2803</text>
  <rect fill="rgb(255,255,255)" height="64" stroke="rgb(255,255,255)" width="32" x="192" y="176" />
  <path d="M 192 176 L 224 176" fill="none" stroke="rgb(0,0,0)" />
  <path d="M 224 176 L 224 240" fill="none" stroke="rgb(0,0,0)" />
  <path d="M 224 240 L 192 240" fill="none" stroke="rgb(0,0,0)" />
  <path d="M 192 240 L 192 176" fill="none" stroke="rgb(0,0,0)" />
  <g transform="rotate(270,192,240)">
    <text fill="rgb(0,0,0)" font-family="sans-serif" font-size="16" font-style="normal" font-weight="normal" text-anchor="middle" textLength="36" x="224" y="264">0x0A</text>
  </g>
  <rect fill="rgb(255,255,255)" height="64" stroke="rgb(255,255,255)" width="64" x="224" y="176" />
  <path d="M 224 176 L 288 176" fill="none" stroke="rgb(0,0,0)" />
  <path d="M 288 176 L 288 240" fill="none" stroke="rgb(0,0,0)" />
  <path d="M 288 240 L 224 240" fill="none" stroke="rgb(0,0,0)" />
  <path d="M 224 240 L 224 176" fill="none" stroke="rgb(0,0,0)" />
  <text fill="rgb(0,0,0)" font-family="sans-serif" font-size="16" font-style="normal" font-weight="normal" text-anchor="middle" textLength="53" x="256" y="216">0x0003</text>
  <rect fill="rgb(255,255,255)" height="64" stroke="rgb(255,255,255)" width="64" x="288" y="176" />
  <path d="M 288 176 L 352 176" fill="none" stroke="rgb(0,0,0)" />
  <path d="M 352 176 L 352 240" fill="none" stroke="rgb(0,0,0)" />
  <path d="M 352 240 L 288 240" fill="none" stroke="rgb(0,0,0)" />
  <path d="M 288 240 L 288 176" fill="none" stroke="rgb(0,0,0)" />
  <text fill="rgb(0,0,0)" font-family="sans-serif" font-size="16" font-style="normal" font-weight="normal" text-anchor="middle" textLength="53" x="320" y="216">0x2A19</text>
  <rect fill="rgb(255,255,255)" height="64" stroke="rgb(255,255,255)" width="64" x="64" y="240" />
  <path d="M 64 240 L 128 240" fill="none" stroke="rgb(0,0,0)" />
  <path d="M 128 240 L 128 304" fill="none" stroke="rgb(0,0,0)" />
  <path d="M 128 304 L 64 304" fill="none" stroke="rgb(0,0,0)" />
  <path d="M 64 304 L 64 240" fill="none" stroke="rgb(0,0,0)" />
  <text fill="rgb(0,0,0)" font-family="sans-serif" font-size="16" font-style="normal" font-weight="normal" text-anchor="middle" textLength="53" x="96" y="280">0x0003</text>
  <rect fill="rgb(255,255,255)" height="64" stroke="rgb(255,255,255)" width="64" x="128" y="240" />
  <path d="M 128 240 L 192 240" fill="none" stroke="rgb(0,0,0)" />
  <path d="M 192 240 L 192 304" fill="none" stroke="rgb(0,0,0)" />
  <path d="M 192 304 L 128 304" fill="none" stroke="rgb(0,0,0)" />
  <path d="M 128 304 L 128 240" fill="none" stroke="rgb(0,0,0)" />
  <text fill="rgb(0,0,0)" font-family="sans-serif" font-size="16" font-style="normal" font-weight="normal" text-anchor="middle" textLength="53" x="160" y="280">0x2A19</text>
  <rect fill="rgb(255,255,255)" height="64" stroke="rgb(255,255,255)" width="32" x="192" y="240" />
  <path d="M 192 240 L 224 240" fill="none" stroke="rgb(0,0,0)" />
  <path d="M 224 240 L 224 304" fill="none" stroke="rgb(0,0,0)" />
  <path d="M 224 304 L 192 304" fill="none" stroke="rgb(0,0,0)" />
  <path d="M 192 304 L 192 240" fill="none" stroke="rgb(0,0,0)" />
  <g transform="rotate(270,192,304)">
    <text fill="rgb(0,0,0)" font-family="sans-serif" font-size="16" font-style="normal" font-weight="normal" text-anchor="middle" textLength="36" x="224" y="328">0x64</text>
  </g>
  <rect fill="rgb(255,255,255)" height="64" stroke="rgb(255,255,255)" width="64" x="64" y="304" />
  <path d="M 64 304 L 128 304" fill="none" stroke="rgb(0,0,0)" />
  <path d="M 128 304 L 128 368" fill="none" stroke="rgb(0,0,0)" />
  <path d="M 128 368 L 64 368" fill="none" stroke="rgb(0,0,0)" />
  <path d="M 64 368 L 64 304" fill="none" stroke="rgb(0,0,0)" />
  <text fill="rgb(0,0,0)" font-family="sans-serif" font-size="16" font-style="normal" font-weight="normal" text-anchor="middle" textLength="53" x="96" y="344">0x0005</text>
  <rect fill="rgb(255,255,255)" height="64" stroke="rgb(255,255,255)" width="64" x="128" y="304" />
  <path d="M 128 304 L 192 304" fill="none" stroke="rgb(0,0,0)" />
  <path d="M 192 304 L 192 368" fill="none" stroke="rgb(0,0,0)" />
  <path d="M 192 368 L 128 368" fill="none" stroke="rgb(0,0,0)" />
  <path d="M 128 368 L 128 304" fill="none" stroke="rgb(0,0,0)" />
  <text fill="rgb(0,0,0)" font-family="sans-serif" font-size="16" font-style="normal" font-weight="normal" text-anchor="middle" textLength="53" x="160" y="344">0x2800</text>
  <rect fill="rgb(255,255,255)" height="64" stroke="rgb(255,255,255)" width="512" x="192" y="304" />
  <path d="M 192 304 L 704 304" fill="none" stroke="rgb(0,0,0)" />
  <path d="M 704 304 L 704 368" fill="none" stroke="rgb(0,0,0)" />
  <path d="M 704 368 L 192 368" fill="none" stroke="rgb(0,0,0)" />
  <path d="M 192 368 L 192 304" fill="none" stroke="rgb(0,0,0)" />
  <text fill="rgb(0,0,0)" font-family="sans-serif" font-size="16" font-style="normal" font-weight="normal" text-anchor="middle" textLength="317" x="448" y="344">7f9eb1be-51ea-4c9e-bd0e-2234b6527d00</text>
  <rect fill="rgb(255,255,255)" height="64" stroke="rgb(255,255,255)" width="64" x="64" y="368" />
  <path d="M 64 368 L 128 368" fill="none" stroke="rgb(0,0,0)" />
  <path d="M 128 368 L 128 432" fill="none" stroke="rgb(0,0,0)" />
  <path d="M 128 432 L 64 432" fill="none" stroke="rgb(0,0,0)" />
  <path d="M 64 432 L 64 368" fill="none" stroke="rgb(0,0,0)" />
  <text fill="rgb(0,0,0)" font-family="sans-serif" font-size="16" font-style="normal" font-weight="normal" text-anchor="middle" textLength="53" x="96" y="408">0x0006</text>
  <rect fill="rgb(255,255,255)" height="64" stroke="rgb(255,255,255)" width="64" x="128" y="368" />
  <path d="M 128 368 L 192 368" fill="none" stroke="rgb(0,0,0)" />
  <path d="M 192 368 L 192 432" fill="none" stroke="rgb(0,0,0)" />
  <path d="M 192 432 L 128 432" fill="none" stroke="rgb(0,0,0)" />
  <path d="M 128 432 L 128 368" fill="none" stroke="rgb(0,0,0)" />
  <text fill="rgb(0,0,0)" font-family="sans-serif" font-size="16" font-style="normal" font-weight="normal" text-anchor="middle" textLength="53" x="160" y="408">0x2803</text>
  <rect fill="rgb(255,255,255)" height="64" stroke="rgb(255,255,255)" width="32" x="192" y="368" />
  <path d="M 192 368 L 224 368" fill="none" stroke="rgb(0,0,0)" />
  <path d="M 224 368 L 224 432" fill="none" stroke="rgb(0,0,0)" />
  <path d="M 224 432 L 192 432" fill="none" stroke="rgb(0,0,0)" />
  <path d="M 192 432 L 192 368" fill="none" stroke="rgb(0,0,0)" />
  <g transform="rotate(270,192,432)">
    <text fill="rgb(0,0,0)" font-family="sans-serif" font-size="16" font-style="normal" font-weight="normal" text-anchor="middle" textLength="36" x="224" y="456">0x0A</text>
  </g>
  <rect fill="rgb(255,255,255)" height="64" stroke="rgb(255,255,255)" width="64" x="224" y="368" />
  <path d="M 224 368 L 288 368" fill="none" stroke="rgb(0,0,0)" />
  <path d="M 288 368 L 288 432" fill="none" stroke="rgb(0,0,0)" />
  <path d="M 288 432 L 224 432" fill="none" stroke="rgb(0,0,0)" />
  <path d="M 224 432 L 224 368" fill="none" stroke="rgb(0,0,0)" />
  <text fill="rgb(0,0,0)" font-family="sans-serif" font-size="16" font-style="normal" font-weight="normal" text-anchor="middle" textLength="53" x="256" y="408">0x0007</text>
  <rect fill="rgb(255,255,255)" height="64" stroke="rgb(255,255,255)" width="64" x="288" y="368" />
  <path d="M 288 368 L 352 368" fill="none" stroke="rgb(0,0,0)" />
  <path d="M 352 368 L 352 432" fill="none" stroke="rgb(0,0,0)" />
  <path d="M 352 432 L 288 432" fill="none" stroke="rgb(0,0,0)" />
  <path d="M 288 432 L 288 368" fill="none" stroke="rgb(0,0,0)" />
  <text fill="rgb(0,0,0)" font-family="sans-serif" font-size="16" font-style="normal" font-weight="normal" text-anchor="middle" textLength="53" x="320" y="408">0x2A3D</text>
  <rect fill="rgb(255,255,255)" height="64" stroke="rgb(255,255,255)" width="64" x="64" y="432" />
  <path d="M 64 432 L 128 432" fill="none" stroke="rgb(0,0,0)" />
  <path d="M 128 432 L 128 496" fill="none" stroke="rgb(0,0,0)" />
  <path d="M 128 496 L 64 496" fill="none" stroke="rgb(0,0,0)" />
  <path d="M 64 496 L 64 432" fill="none" stroke="rgb(0,0,0)" />
  <text fill="rgb(0,0,0)" font-family="sans-serif" font-size="16" font-style="normal" font-weight="normal" text-anchor="middle" textLength="53" x="96" y="472">0x0007</text>
  <rect fill="rgb(255,255,255)" height="64" stroke="rgb(255,255,255)" width="64" x="128" y="432" />
  <path d="M 128 432 L 192 432" fill="none" stroke="rgb(0,0,0)" />
  <path d="M 192 432 L 192 496" fill="none" stroke="rgb(0,0,0)" />
  <path d="M 192 496 L 128 496" fill="none" stroke="rgb(0,0,0)" />
  <path d="M 128 496 L 128 432" fill="none" stroke="rgb(0,0,0)" />
  <text fill="rgb(0,0,0)" font-family="sans-serif" font-size="16" font-style="normal" font-weight="normal" text-anchor="middle" textLength="53" x="160" y="472">0x2A3D</text>
  <rect fill="rgb(255,255,255)" height="64" stroke="rgb(255,255,255)" width="352" x="192" y="432" />
  <path d="M 192 432 L 544 432" fill="none" stroke="rgb(0,0,0)" />
  <path d="M 544 432 L 544 496" fill="none" stroke="rgb(0,0,0)" />
  <path d="M 544 496 L 192 496" fill="none" stroke="rgb(0,0,0)" />
  <path d="M 192 496 L 192 432" fill="none" stroke="rgb(0,0,0)" />
  <text fill="rgb(0,0,0)" font-family="sans-serif" font-size="16" font-style="normal" font-weight="normal" text-anchor="middle" textLength="115" x="368" y="472">"Hello World"</text>
</svg>
